Coordinates
version=1
nRows=8
nColumns=46
inDegrees=yes

Units are S.I. units (second, meters, Newtons, ...)
Angles are in degrees.

endheader
time	pelvis_tilt	pelvis_list	pelvis_rotation	pelvis_tx	pelvis_ty	pelvis_tz	bb_angle	bb_tx	bb_ty	bb_tz	hip_flexion_r	hip_adduction_r	hip_rotation_r	knee_angle_r	knee_angle_r_beta	ankle_angle_r	subtalar_angle_r	mtp_angle_r	crank_angle_r	hip_flexion_l	hip_adduction_l	hip_rotation_l	knee_angle_l	knee_angle_l_beta	ankle_angle_l	subtalar_angle_l	mtp_angle_l	crank_angle_l	lumbar_extension	lumbar_bending	lumbar_rotation	arm_flex_r	arm_add_r	arm_rot_r	elbow_flex_r	pro_sup_r	wrist_flex_r	wrist_dev_r	arm_flex_l	arm_add_l	arm_rot_l	elbow_flex_l	pro_sup_l	wrist_flex_l	wrist_dev_l
      5.00500000	    -14.95596547	     -0.07421241	      2.15681560	      0.08434169	      1.10287782	     -0.25999332	      0.00000000	      0.50000000	      0.00000000	      0.25000000	     57.49299136	     -1.44592144	      4.01817157	     50.93064491	      0.88890744	     -1.05555971	    -22.29907333	      0.00000000	      0.00000000	     71.92517306	     -0.17096594	      8.81069787	    101.55510234	      1.77247091	    -20.34659945	    -12.28212415	      0.00000000	      0.00000000	    -65.91857032	     -1.71566826	     -5.40216962	     89.47274922	    -21.66576950	     28.95561191	     67.09892697	     30.37248399	      0.00000000	      0.00000000	     89.57024861	    -29.28080263	     31.93017768	     76.76177184	     40.10513368	      0.00000000	      0.00000000
      5.01000000	    -15.14080221	      0.33447145	      2.58749669	      0.08464364	      1.10334721	     -0.25961799	      0.00000000	      0.50000000	      0.00000000	      0.25000000	     55.91650035	     -2.10294846	      4.00444851	     48.33774858	      0.84365287	     -2.21173418	    -21.88454392	      0.00000000	      0.00000000	     73.30689713	      0.36701227	      8.63648398	    103.19333545	      1.80106347	    -19.33181347	    -11.96508225	      0.00000000	      0.00000000	    -65.79865130	     -1.83542963	     -6.09238173	     89.45669722	    -21.62924237	     29.02376620	     66.66905356	     30.39647134	      0.00000000	      0.00000000	     89.58263384	    -29.13111791	     31.94537168	     76.87124993	     39.94900389	      0.00000000	      0.00000000
      5.01500000	    -15.49858231	      0.87581903	      2.99247294	      0.08496310	      1.10356831	     -0.25948561	      0.00000000	      0.50000000	      0.00000000	      0.25000000	     54.56050037	     -2.88124186	      4.12454191	     45.86233820	      0.80044880	     -3.27163337	    -21.07073862	      0.00000000	      0.00000000	     74.87619853	      0.93303520	      8.24607854	    104.74703041	      1.82818056	    -18.46187104	    -11.88703501	      0.00000000	      0.00000000	    -65.51436002	     -2.07955187	     -6.72294237	     89.41068620	    -21.81606384	     28.99510908	     66.47586642	     30.40384372	      0.00000000	      0.00000000	     89.59229157	    -28.83897189	     32.01838941	     76.99747902	     39.89999047	      0.00000000	      0.00000000
      5.02000000	    -15.61641851	      1.23301868	      3.42936252	      0.08518587	      1.10409891	     -0.25906030	      0.00000000	      0.50000000	      0.00000000	      0.25000000	     52.93175452	     -3.49966000	      4.03584096	     43.40017960	      0.75747603	     -4.53167427	    -20.71847694	      0.00000000	      0.00000000	     76.25600673	      1.38062611	      8.12574112	    106.26030315	      1.85459215	    -17.24288208	    -11.13212330	      0.00000000	      0.00000000	    -65.47692630	     -2.19969391	     -7.33022563	     89.40922498	    -21.90686511	     29.17346705	     65.94877802	     30.46666515	      0.00000000	      0.00000000	     89.60179949	    -28.56078273	     32.02742996	     77.05240340	     39.66162124	      0.00000000	      0.00000000
      5.02500000	    -15.97683757	      1.76848023	      3.82493627	      0.08531086	      1.10425567	     -0.25865293	      0.00000000	      0.50000000	      0.00000000	      0.25000000	     51.67207659	     -4.29019529	      3.98477506	     41.12645869	      0.71779211	     -5.50067445	    -19.73313535	      0.00000000	      0.00000000	     77.90054593	      1.82861039	      7.68664289	    107.64111415	      1.87869185	    -16.47967029	    -11.06159290	      0.00000000	      0.00000000	    -65.22453166	     -2.42629350	     -7.99430168	     89.36435587	    -22.04730846	     29.14070258	     65.84737325	     30.48693894	      0.00000000	      0.00000000	     89.61474440	    -28.32966036	     32.07888004	     77.10389397	     39.61773262	      0.00000000	      0.00000000
      5.03000000	    -16.25002316	      2.27216976	      4.24099107	      0.08531718	      1.10455123	     -0.25830477	      0.00000000	      0.50000000	      0.00000000	      0.25000000	     50.35582489	     -5.07639750	      3.87016173	     38.95394055	      0.67987452	     -6.54111912	    -18.77495209	      0.00000000	      0.00000000	     79.48222478	      2.21595570	      7.24236122	    108.92685397	      1.90113225	    -15.69743745	    -10.81892637	      0.00000000	      0.00000000	    -65.06043621	     -2.59091179	     -8.61424888	     89.32663708	    -22.19321772	     29.15941827	     65.66418272	     30.49044309	      0.00000000	      0.00000000	     89.62090896	    -28.09653792	     32.12240753	     77.15983717	     39.56969149	      0.00000000	      0.00000000
      5.03500000	    -16.27475829	      2.63734047	      4.73988801	      0.08541177	      1.10521822	     -0.25802990	      0.00000000	      0.50000000	      0.00000000	      0.25000000	     48.78069024	     -5.84060908	      3.44393381	     36.86980011	      0.64349941	     -7.70166437	    -17.83836272	      0.00000000	      0.00000000	     80.80337546	      2.65653281	      7.07464502	    110.15394701	      1.92254906	    -14.53230423	     -9.74371747	      0.00000000	      0.00000000	    -65.11398237	     -2.58848026	     -9.11635958	     89.33300061	    -22.26454857	     29.39968900	     65.08257136	     30.55126735	      0.00000000	      0.00000000	     89.63024369	    -27.82645953	     32.11278373	     77.20051043	     39.32428207	      0.00000000	      0.00000000
      5.04000000	    -16.60761523	      3.10741975	      5.11112643	      0.08517225	      1.10523121	     -0.25770306	      0.00000000	      0.50000000	      0.00000000	      0.25000000	     47.70182655	     -6.60114492	      3.23474777	     35.05113846	      0.61175777	     -8.65438794	    -16.68916642	      0.00000000	      0.00000000	     82.50756019	      2.93401134	      6.59694757	    111.25975069	      1.94184897	    -13.74034797	     -9.50925149	      0.00000000	      0.00000000	    -64.88131546	     -2.73755280	     -9.61144241	     89.29380563	    -22.41006780	     29.38713439	     64.93808996	     30.57399246	      0.00000000	      0.00000000	     89.63757494	    -27.59736362	     32.16397215	     77.26720950	     39.25566598	      0.00000000	      0.00000000
